<?xml version="1.0" encoding="UTF-8" standalone="no"?>
<!DOCTYPE svg PUBLIC "-//W3C//DTD SVG 1.1//EN" "http://www.w3.org/Graphics/SVG/1.1/DTD/svg11.dtd">
<!-- Created with Vectornator (http://vectornator.io/) -->
<svg height="100%" stroke-miterlimit="10" style="fill-rule:nonzero;clip-rule:evenodd;stroke-linecap:round;stroke-linejoin:round;" version="1.1" viewBox="0 0 1000 1000" width="100%" xml:space="preserve" xmlns="http://www.w3.org/2000/svg" xmlns:vectornator="http://vectornator.io" xmlns:xlink="http://www.w3.org/1999/xlink">
<defs>
<filter color-interpolation-filters="sRGB" filterUnits="userSpaceOnUse" height="192.729" id="Filter" width="997.783" x="6.25166" y="380.163">
<feDropShadow dx="6.36396" dy="6.36396" flood-color="#000000" flood-opacity="0.350471" in="SourceGraphic" result="Shadow" stdDeviation="4"/>
</filter>
<filter color-interpolation-filters="sRGB" filterUnits="userSpaceOnUse" height="472" id="Filter_2" width="472" x="134" y="374">
<feDropShadow dx="-0" dy="0" flood-color="#000000" flood-opacity="0.350471" in="SourceGraphic" result="Shadow" stdDeviation="25"/>
</filter>
<filter color-interpolation-filters="sRGB" filterUnits="userSpaceOnUse" height="259.774" id="Filter_3" width="259.615" x="360.385" y="360">
<feDropShadow dx="-0" dy="0" flood-color="#000000" flood-opacity="0.350471" in="SourceGraphic" result="Shadow" stdDeviation="25"/>
</filter>
<filter color-interpolation-filters="sRGB" filterUnits="userSpaceOnUse" height="245" id="Filter_4" width="245" x="357.5" y="377.5">
<feDropShadow dx="-0" dy="0" flood-color="#000000" flood-opacity="0.350471" in="SourceGraphic" result="Shadow" stdDeviation="25"/>
</filter>
</defs>
<clipPath id="ArtboardFrame">
<rect height="1000" width="1000" x="0" y="0"/>
</clipPath>
<g clip-path="url(#ArtboardFrame)" id="Layer-2" vectornator:layerName="Layer 2">
<g fill="#000000" filter="url(#Filter)" stroke="none" vectornator:layerName="Text 1" vectornator:shadowAngle="0.785398" vectornator:shadowColor="#000000" vectornator:shadowOffset="9" vectornator:shadowOpacity="0.350471" vectornator:shadowRadius="8">
<path d="M113.525 519.907L151.733 431.895C154.989 424.326 156.616 418.019 156.616 412.974C156.616 406.707 154.439 401.682 150.085 397.898C145.732 394.114 139.119 391.367 130.249 389.658L130.249 385.874L193.604 385.874L193.604 389.536C188.314 391.408 183.634 394.032 179.565 397.41C175.496 400.787 171.692 405.263 168.152 410.837C164.612 416.412 160.685 424.001 156.372 433.604L102.173 556.528L99.4873 556.528L40.4053 423.716C35.0342 411.346 30.3955 402.984 26.4893 398.63C22.583 394.277 17.0492 391.286 9.8877 389.658L9.8877 385.874L89.2334 385.874L89.2334 389.658L86.5479 389.78C78.7354 390.431 73.2422 391.815 70.0684 393.931C66.8945 396.047 65.3076 399.424 65.3076 404.062C65.3076 407.643 66.3656 411.834 68.4814 416.636L113.525 519.907ZM107.544 533.579L57.4951 418.345C55.1351 412.974 53.9551 408.294 53.9551 404.307C53.9551 401.865 54.484 399.648 55.542 397.654C56.5999 395.66 58.6344 393.361 61.6455 390.757L24.292 390.757C29.3376 394.744 33.5286 399.709 36.8652 405.649C38.737 409.067 40.3239 412.078 41.626 414.683C42.9281 417.287 44.1081 419.85 45.166 422.373L100.83 548.838L107.544 533.579ZM146.24 390.513C151.123 393.524 154.602 396.453 156.677 399.302C158.752 402.15 159.953 405.731 160.278 410.044C162.476 405.487 164.714 401.784 166.992 398.936C169.271 396.087 172.282 393.28 176.025 390.513L146.24 390.513Z"/>
<path d="M241.455 474.253C246.175 465.138 250.427 458.77 254.211 455.149C257.996 451.528 262.37 449.717 267.334 449.717C273.519 449.717 278.687 452.158 282.837 457.041C286.987 461.924 289.062 467.987 289.062 475.229C289.062 479.868 288.106 483.449 286.194 485.972C284.281 488.494 281.576 489.756 278.076 489.756C275.065 489.756 272.624 488.739 270.752 486.704C268.88 484.67 267.944 482.065 267.944 478.892C267.944 477.427 268.148 475.799 268.555 474.009L269.653 469.37C270.304 466.522 270.63 463.999 270.63 461.802C270.63 459.604 270.04 457.875 268.86 456.614C267.68 455.352 266.113 454.722 264.16 454.722C261.882 454.722 259.644 455.597 257.446 457.346C255.249 459.096 252.909 461.903 250.427 465.769C247.945 469.635 244.954 475.026 241.455 481.943L241.455 529.062C241.455 535.817 242.655 540.618 245.056 543.467C247.457 546.315 251.872 548.228 258.301 549.204L258.301 552.5L202.148 552.5L202.148 549.204C207.682 548.228 211.466 546.335 213.501 543.528C215.535 540.72 216.553 535.898 216.553 529.062L216.553 477.793C216.553 470.957 215.515 466.095 213.44 463.206C211.365 460.317 207.601 458.465 202.148 457.651L202.148 454.966L241.455 450.449L241.455 474.253ZM214.355 547.129L238.77 547.129L235.84 544.932C235.677 544.769 235.514 544.647 235.352 544.565L233.765 543.345C232.625 542.205 232.015 540.659 231.934 538.706L231.934 536.265L231.934 535.044L231.934 455.576L211.914 457.773L216.675 461.191C216.756 461.191 216.919 461.313 217.163 461.558L218.75 462.778C219.564 463.348 220.093 464.182 220.337 465.281C220.581 466.379 220.703 468.312 220.703 471.079L220.703 535.044C220.703 538.381 220.54 540.456 220.215 541.27C219.889 542.083 218.913 543.182 217.285 544.565C217.285 544.565 217.224 544.606 217.102 544.688C216.98 544.769 216.919 544.85 216.919 544.932L214.355 547.129ZM271.24 455.088C273.112 457.611 274.048 460.337 274.048 463.267C274.048 465.789 273.6 468.882 272.705 472.544C271.891 476.043 271.484 478.363 271.484 479.502C271.484 482.92 272.868 484.629 275.635 484.629C279.134 484.629 280.884 481.333 280.884 474.741C280.884 466.359 277.669 459.808 271.24 455.088Z"/>
<path d="M293.701 502.451C293.701 493.011 296.244 484.242 301.331 476.145C306.417 468.048 313.293 461.659 321.96 456.98C330.627 452.301 340.129 449.961 350.464 449.961C358.195 449.961 365.479 451.283 372.314 453.928C379.15 456.573 385.173 460.317 390.381 465.159C395.589 470.001 399.638 475.657 402.527 482.126C405.416 488.596 406.86 495.371 406.86 502.451C406.86 511.81 404.358 520.558 399.353 528.696C394.348 536.834 387.512 543.243 378.845 547.922C370.178 552.602 360.758 554.941 350.586 554.941C340.251 554.941 330.729 552.622 322.021 547.983C313.314 543.345 306.417 536.977 301.331 528.879C296.244 520.782 293.701 511.973 293.701 502.451ZM320.435 501.719C320.435 508.799 321.147 515.309 322.571 521.25C323.995 527.191 326.05 532.257 328.735 536.448C331.421 540.639 334.615 543.874 338.318 546.152C342.021 548.431 346.069 549.57 350.464 549.57C354.777 549.57 358.805 548.411 362.549 546.091C366.292 543.772 369.466 540.557 372.07 536.448C374.674 532.338 376.689 527.272 378.113 521.25C379.537 515.228 380.249 508.717 380.249 501.719C380.249 492.36 379.008 484.059 376.526 476.816C374.044 469.574 370.544 463.958 366.028 459.971C361.511 455.983 356.283 453.989 350.342 453.989C341.309 453.989 334.066 458.384 328.613 467.173C323.161 475.962 320.435 487.477 320.435 501.719ZM329.834 547.983C325.928 544.891 323.263 542.592 321.838 541.086C320.414 539.581 318.888 537.567 317.261 535.044C312.052 526.58 309.448 515.675 309.448 502.329C309.448 480.194 316.976 464.65 332.031 455.698C325.195 458.221 319.194 461.883 314.026 466.685C308.858 471.486 304.871 476.938 302.063 483.042C299.255 489.146 297.852 495.615 297.852 502.451C297.852 509.124 299.235 515.553 302.002 521.738C304.769 527.923 308.634 533.254 313.599 537.729C316.284 539.927 318.441 541.554 320.068 542.612C321.696 543.67 324.951 545.461 329.834 547.983ZM362.793 549.937C373.535 545.216 381.734 538.767 387.39 530.588C393.046 522.41 395.874 513.031 395.874 502.451C395.874 491.628 393.127 481.984 387.634 473.521C382.141 465.057 374.837 459.076 365.723 455.576C378.174 464.691 384.399 480.194 384.399 502.085C384.399 513.153 382.833 522.389 379.7 529.795C376.567 537.201 371.582 543.426 364.746 548.472L362.793 549.937Z"/>
<path d="M419.556 502.451C419.556 493.011 422.099 484.242 427.185 476.145C432.271 468.048 439.148 461.659 447.815 456.98C456.482 452.301 465.983 449.961 476.318 449.961C484.049 449.961 491.333 451.283 498.169 453.928C505.005 456.573 511.027 460.317 516.235 465.159C521.444 470.001 525.492 475.657 528.381 482.126C531.27 488.596 532.715 495.371 532.715 502.451C532.715 511.81 530.212 520.558 525.208 528.696C520.203 536.834 513.367 543.243 504.7 547.922C496.033 552.602 486.613 554.941 476.44 554.941C466.105 554.941 456.584 552.622 447.876 547.983C439.168 543.345 432.271 536.977 427.185 528.879C422.099 520.782 419.556 511.973 419.556 502.451ZM446.289 501.719C446.289 508.799 447.001 515.309 448.425 521.25C449.849 527.191 451.904 532.257 454.59 536.448C457.275 540.639 460.47 543.874 464.172 546.152C467.875 548.431 471.924 549.57 476.318 549.57C480.632 549.57 484.66 548.411 488.403 546.091C492.147 543.772 495.321 540.557 497.925 536.448C500.529 532.338 502.543 527.272 503.967 521.25C505.391 515.228 506.104 508.717 506.104 501.719C506.104 492.36 504.862 484.059 502.38 476.816C499.898 469.574 496.399 463.958 491.882 459.971C487.366 455.983 482.137 453.989 476.196 453.989C467.163 453.989 459.92 458.384 454.468 467.173C449.015 475.962 446.289 487.477 446.289 501.719ZM455.688 547.983C451.782 544.891 449.117 542.592 447.693 541.086C446.269 539.581 444.743 537.567 443.115 535.044C437.907 526.58 435.303 515.675 435.303 502.329C435.303 480.194 442.83 464.65 457.886 455.698C451.05 458.221 445.048 461.883 439.88 466.685C434.713 471.486 430.725 476.938 427.917 483.042C425.11 489.146 423.706 495.615 423.706 502.451C423.706 509.124 425.09 515.553 427.856 521.738C430.623 527.923 434.489 533.254 439.453 537.729C442.139 539.927 444.295 541.554 445.923 542.612C447.55 543.67 450.806 545.461 455.688 547.983ZM488.647 549.937C499.39 545.216 507.589 538.767 513.245 530.588C518.901 522.41 521.729 513.031 521.729 502.451C521.729 491.628 518.982 481.984 513.489 473.521C507.996 465.057 500.692 459.076 491.577 455.576C504.028 464.691 510.254 480.194 510.254 502.085C510.254 513.153 508.687 522.389 505.554 529.795C502.421 537.201 497.437 543.426 490.601 548.472L488.647 549.937Z"/>
<path d="M657.227 479.624C657.552 482.472 657.715 485.443 657.715 488.535L657.715 529.062C657.715 535.817 658.752 540.618 660.828 543.467C662.903 546.315 666.667 548.228 672.119 549.204L672.119 552.5L618.53 552.5L618.53 549.204C624.064 548.228 627.828 546.315 629.822 543.467C631.816 540.618 632.812 535.817 632.812 529.062L632.812 487.803C632.812 478.932 632.243 472.788 631.104 469.37C630.046 465.708 628.174 462.819 625.488 460.703C622.803 458.587 619.67 457.529 616.089 457.529C610.962 457.529 606.079 459.157 601.44 462.412C596.802 465.667 591.227 471.323 584.717 479.38L584.717 529.062C584.717 535.817 585.714 540.618 587.708 543.467C589.701 546.315 593.465 548.228 598.999 549.204L598.999 552.5L545.41 552.5L545.41 549.204C550.944 548.228 554.728 546.335 556.763 543.528C558.797 540.72 559.814 535.898 559.814 529.062L559.814 477.793C559.814 470.957 558.777 466.095 556.702 463.206C554.626 460.317 550.863 458.465 545.41 457.651L545.41 454.966L584.717 450.449L584.717 473.398C591.309 465.179 597.677 459.218 603.821 455.515C609.965 451.812 616.618 449.961 623.779 449.961C632.08 449.961 639.018 452.097 644.592 456.37C650.167 460.642 654.012 466.725 656.128 474.619C661.255 468.434 665.649 463.674 669.312 460.337C676.961 453.42 685.832 449.961 695.923 449.961C702.189 449.961 707.947 451.365 713.196 454.172C718.445 456.98 722.534 460.947 725.464 466.074C728.638 471.527 730.225 479.014 730.225 488.535L730.225 529.062C730.225 535.817 731.222 540.618 733.215 543.467C735.209 546.315 738.973 548.228 744.507 549.204L744.507 552.5L690.918 552.5L690.918 549.204C696.533 548.228 700.338 546.315 702.332 543.467C704.325 540.618 705.322 535.817 705.322 529.062L705.322 487.803C705.322 478.851 704.753 472.707 703.613 469.37C702.555 465.627 700.704 462.717 698.059 460.642C695.414 458.567 692.342 457.529 688.843 457.529C683.716 457.529 678.691 459.259 673.767 462.717C668.844 466.176 663.33 471.812 657.227 479.624ZM630.615 547.129L655.029 547.129L652.222 544.932C652.059 544.85 651.896 544.728 651.733 544.565L650.146 543.345C648.926 542.124 648.315 540.578 648.315 538.706L648.193 536.265L648.193 535.044L648.193 488.413C648.112 477.183 646.322 469.126 642.822 464.243C640.544 460.988 637.614 458.445 634.033 456.614C630.452 454.783 626.628 453.867 622.559 453.867C622.07 453.867 621.684 453.888 621.399 453.928C621.114 453.969 620.626 454.01 619.934 454.05C619.242 454.091 618.53 454.152 617.798 454.233C625.122 455.291 630.147 458.201 632.874 462.961C635.6 467.722 636.963 475.962 636.963 487.681L636.963 535.044C636.963 538.381 636.82 540.456 636.536 541.27C636.251 542.083 635.295 543.182 633.667 544.565C633.504 544.728 633.403 544.81 633.362 544.81C633.321 544.81 633.26 544.85 633.179 544.932L630.615 547.129ZM557.617 547.129L582.031 547.129L579.102 544.932C578.939 544.769 578.776 544.647 578.613 544.565L577.026 543.345C575.887 542.205 575.277 540.659 575.195 538.706L575.195 536.265L575.195 535.044L575.195 455.576L555.176 457.773L559.937 461.191C560.018 461.191 560.181 461.313 560.425 461.558L562.012 462.778C562.826 463.348 563.354 464.182 563.599 465.281C563.843 466.379 563.965 468.312 563.965 471.079L563.965 535.044C563.965 538.381 563.802 540.456 563.477 541.27C563.151 542.083 562.174 543.182 560.547 544.565C560.547 544.565 560.486 544.606 560.364 544.688C560.242 544.769 560.181 544.85 560.181 544.932L557.617 547.129ZM703.125 547.129L727.539 547.129L724.609 544.932C724.609 544.85 724.569 544.769 724.487 544.688C724.406 544.606 724.325 544.565 724.243 544.565L722.656 543.345C721.436 542.205 720.825 540.659 720.825 538.706L720.703 536.265L720.703 535.044L720.581 488.413C720.581 482.228 720.215 477.386 719.482 473.887C718.75 470.387 717.367 467.173 715.332 464.243C710.286 457.407 703.573 453.989 695.19 453.989C694.539 453.989 692.912 454.071 690.308 454.233C697.632 455.291 702.657 458.201 705.383 462.961C708.11 467.722 709.473 475.962 709.473 487.681L709.473 535.044C709.473 538.381 709.33 540.456 709.045 541.27C708.761 542.083 707.804 543.182 706.177 544.565C706.014 544.728 705.912 544.81 705.872 544.81C705.831 544.81 705.77 544.85 705.688 544.932L703.125 547.129Z"/>
<path d="M790.771 464.976C797.038 459.686 802.836 455.902 808.167 453.623C813.497 451.344 819.458 450.205 826.05 450.205C833.049 450.205 839.417 451.405 845.154 453.806C850.891 456.207 855.937 459.584 860.291 463.938C864.644 468.292 868.022 473.337 870.422 479.075C872.823 484.812 874.023 491.18 874.023 498.179C874.023 505.828 872.66 513.01 869.934 519.724C867.208 526.438 863.363 532.48 858.398 537.852C853.434 543.223 847.677 547.414 841.125 550.425C834.574 553.436 827.799 554.941 820.801 554.941C809.163 554.941 798.258 550.425 788.086 541.392L769.409 552.5L765.747 552.5L765.747 411.143C765.747 404.388 764.73 399.546 762.695 396.616C760.661 393.687 756.917 391.815 751.465 391.001L751.465 388.315L790.771 383.799L790.771 464.976ZM790.771 534.678C796.468 539.886 801.514 543.609 805.908 545.847C810.303 548.085 814.535 549.204 818.604 549.204C824.463 549.204 829.61 547.353 834.045 543.65C838.481 539.947 841.899 534.678 844.299 527.842C846.7 521.006 847.9 512.949 847.9 503.672C847.9 496.673 847.229 490.264 845.886 484.446C844.543 478.627 842.59 473.541 840.027 469.187C837.463 464.833 834.412 461.476 830.872 459.116C827.332 456.756 823.486 455.576 819.336 455.576C814.86 455.576 810.343 456.939 805.786 459.666C801.229 462.392 796.224 466.685 790.771 472.544L790.771 534.678ZM830.078 454.233C837.809 459.279 843.424 465.667 846.924 473.398C850.423 481.13 852.173 491.099 852.173 503.306C852.173 513.071 851.013 521.25 848.694 527.842C846.375 534.434 842.407 540.537 836.792 546.152C842.326 543.467 847.107 539.845 851.135 535.288C855.164 530.731 858.256 525.4 860.413 519.297C862.569 513.193 863.647 506.724 863.647 499.888C863.647 491.994 862.244 484.832 859.436 478.403C856.628 471.974 852.681 466.644 847.595 462.412C842.509 458.18 836.67 455.454 830.078 454.233ZM770.02 546.396L781.25 539.316L781.25 388.926L761.23 391.123L765.991 394.541C766.073 394.541 766.235 394.663 766.479 394.907L768.066 396.128C768.88 396.698 769.409 397.532 769.653 398.63C769.897 399.729 770.02 401.662 770.02 404.429L770.02 546.396Z"/>
<path d="M948.364 541.147C938.354 549.611 927.612 553.843 916.138 553.843C906.942 553.843 899.597 551.462 894.104 546.702C888.611 541.941 885.864 535.695 885.864 527.964C885.864 516.978 891.235 508.351 901.978 502.085C912.72 495.819 928.182 492.279 948.364 491.465L948.364 488.047L948.364 486.338C948.364 479.99 948.079 474.802 947.51 470.774C946.94 466.746 946.126 463.714 945.068 461.68C943.848 459.32 942.118 457.428 939.88 456.003C937.642 454.579 935.221 453.867 932.617 453.867C928.792 453.867 925.781 455.108 923.584 457.59C921.387 460.072 920.003 463.918 919.434 469.126C918.783 474.253 917.725 477.732 916.26 479.563C914.795 481.394 912.272 482.31 908.691 482.31C905.924 482.31 903.605 481.333 901.733 479.38C899.862 477.427 898.926 474.904 898.926 471.812C898.926 467.661 900.431 463.897 903.442 460.52C906.453 457.143 910.624 454.478 915.955 452.524C921.285 450.571 927.124 449.595 933.472 449.595C941.691 449.595 948.893 451.243 955.078 454.539C961.263 457.834 965.861 462.412 968.872 468.271C970.5 471.283 971.659 474.66 972.351 478.403C973.043 482.147 973.389 487.314 973.389 493.906L973.389 529.062C973.389 535.817 974.386 540.618 976.379 543.467C978.373 546.315 982.137 548.228 987.671 549.204L987.671 552.5L948.364 552.5L948.364 541.147ZM948.364 535.776L948.364 495.371C940.47 496.592 933.695 498.626 928.04 501.475C922.384 504.323 918.05 507.944 915.039 512.339C912.028 516.733 910.522 521.576 910.522 526.865C910.522 532.236 912.13 536.692 915.344 540.232C918.559 543.772 922.607 545.542 927.49 545.542C933.512 545.542 940.47 542.287 948.364 535.776ZM952.515 547.129L970.581 547.129L967.773 544.932C967.773 544.932 967.712 544.871 967.59 544.749C967.468 544.626 967.367 544.565 967.285 544.565L965.698 543.345C964.478 542.124 963.867 540.578 963.867 538.706L963.867 536.265L963.745 535.044L963.745 493.54C963.745 482.228 962.443 473.765 959.839 468.149C956.177 460.662 950.439 455.861 942.627 453.745C947.835 457.407 950.887 463.226 951.782 471.201C952.271 476.084 952.515 483.652 952.515 493.906L952.515 547.129ZM921.509 550.425C907.674 547.576 900.757 540.008 900.757 527.72C900.757 519.744 903.971 512.909 910.4 507.212C913.249 504.689 918.742 501.475 926.88 497.568C917.033 499.44 909.383 502.004 903.931 505.259C894.653 510.955 890.015 518.483 890.015 527.842C890.015 534.596 892.476 540.069 897.4 544.26C902.323 548.451 908.691 550.547 916.504 550.547C918.376 550.547 920.044 550.506 921.509 550.425ZM921.509 453.989C915.812 455.454 911.235 457.834 907.776 461.13C904.317 464.426 902.588 468.109 902.588 472.178C902.588 473.724 902.954 474.945 903.687 475.84C904.419 476.735 905.396 477.183 906.616 477.183C907.756 477.183 908.61 476.837 909.18 476.145C909.749 475.453 910.238 474.049 910.645 471.934C911.54 467.376 912.699 463.938 914.124 461.619C915.548 459.299 918.009 456.756 921.509 453.989Z"/>
</g>
</g>
<g id="Layer-1" vectornator:layerName="Layer 1">
<g filter="url(#Filter_2)" vectornator:layerName="Curve 2" vectornator:shadowAngle="1.5708" vectornator:shadowColor="#000000" vectornator:shadowOffset="0" vectornator:shadowOpacity="0.350471" vectornator:shadowRadius="50">
<path d="M477.938 442.594C466.881 442.98 455.837 446.563 446.219 453.562C445.367 454.317 444.6 455.181 443.812 456C442.332 457.539 440.843 459.105 439.375 460.656C435.161 465.111 430.973 469.589 426.812 474.094C414.323 487.615 402.049 501.322 389.906 515.156C375.75 531.284 361.883 547.67 348.375 564.344C344.927 568.6 341.553 572.916 338.125 577.188C332.204 584.566 326.522 592.138 320.781 599.656C310.713 612.842 301.151 626.445 292.094 640.344C286.389 649.098 280.945 658.029 275.969 667.219C271.617 675.255 267.589 683.506 264.438 692.094C261.22 700.863 258.467 710.596 260 720C261.667 711.702 266.738 704.493 272.094 698.125C281.81 686.572 293.571 676.743 305.469 667.531C318.397 657.521 331.899 648.176 345.656 639.344C353.203 634.498 360.723 629.628 368.406 625C375.563 620.69 382.696 616.346 389.906 612.125C409.874 600.434 430.156 589.252 450.594 578.406C466.657 569.881 482.82 561.586 499.125 553.531C502.848 551.692 506.566 549.854 510.312 548.062C511.194 547.641 512.083 547.223 512.969 546.812C513.077 546.762 513.653 546.382 513.781 546.438C539.43 527.773 545.102 491.868 526.438 466.219C514.772 450.188 496.365 441.95 477.938 442.594Z" fill="#e94420" stroke="none"/>
</g>
<path d="M430.385 450.621C443.061 437.884 460.61 430 480 430C518.66 430 550 461.34 550 500C550 519.471 542.05 537.085 529.219 549.774" fill="none" filter="url(#Filter_3)" stroke="#9d9d9d" stroke-linecap="round" stroke-linejoin="round" stroke-width="15" vectornator:layerName="Curve 1" vectornator:shadowAngle="1.5708" vectornator:shadowColor="#000000" vectornator:shadowOffset="0" vectornator:shadowOpacity="0.350471" vectornator:shadowRadius="50"/>
<path d="M420 500C420 466.863 446.863 440 480 440C513.137 440 540 466.863 540 500C540 533.137 513.137 560 480 560C446.863 560 420 533.137 420 500Z" fill="#5b5b5b" fill-rule="nonzero" filter="url(#Filter_4)" stroke="none" vectornator:layerName="Oval 1" vectornator:shadowAngle="1.5708" vectornator:shadowColor="#000000" vectornator:shadowOffset="0" vectornator:shadowOpacity="0.350471" vectornator:shadowRadius="50"/>
</g>
</svg>
